<?xml version="1.0" encoding="utf-8"?><!-- Uploaded to: SVG Repo, www.svgrepo.com, Generator: SVG Repo Mixer Tools -->
<svg fill="#000000" width="800px" height="800px" viewBox="0 0 24 24" id="lock-file-2" data-name="Flat Line" xmlns="http://www.w3.org/2000/svg" class="icon flat-line"><path id="secondary" d="M16,3H5V5H3V20a1,1,0,0,0,1,1H9.08A9.86,9.86,0,0,1,8,16.5a10,10,0,0,1,9-9.95V4A1,1,0,0,0,16,3Z" style="fill: rgb(44, 169, 188); stroke-width: 2;"></path><path id="primary" d="M17,7V4a1,1,0,0,0-1-1H5L3,5V20a1,1,0,0,0,1,1H9" style="fill: none; stroke: rgb(0, 0, 0); stroke-linecap: round; stroke-linejoin: round; stroke-width: 2;"></path><path id="primary-2" data-name="primary" d="M14,15h6a1,1,0,0,1,1,1v4a1,1,0,0,1-1,1H14a1,1,0,0,1-1-1V16A1,1,0,0,1,14,15Zm3-4h0a2,2,0,0,0-2,2v2h4V13A2,2,0,0,0,17,11ZM3,5H5V3Z" style="fill: none; stroke: rgb(0, 0, 0); stroke-linecap: round; stroke-linejoin: round; stroke-width: 2;"></path></svg>